<svg id="Layer_1" data-name="Layer 1" xmlns="http://www.w3.org/2000/svg" viewBox="0 0 22.44 25"><defs><style>.cls-1{fill:#6b11ff;}</style></defs><title>ico-share-twitter</title><path class="cls-1" d="M20.13,7.93c0,.2,0,.4,0,.6A13,13,0,0,1,7.06,21.61,13,13,0,0,1,0,19.55a9.48,9.48,0,0,0,1.11.06,9.21,9.21,0,0,0,5.71-2,4.61,4.61,0,0,1-4.3-3.19,5.79,5.79,0,0,0,.87.07,4.87,4.87,0,0,0,1.21-.16A4.6,4.6,0,0,1,.91,9.85V9.79A4.63,4.63,0,0,0,3,10.38,4.61,4.61,0,0,1,1.57,4.23,13.07,13.07,0,0,0,11,9,5.19,5.19,0,0,1,10.93,8a4.6,4.6,0,0,1,8-3.15,9.06,9.06,0,0,0,2.92-1.11,4.59,4.59,0,0,1-2,2.53,9.2,9.2,0,0,0,2.65-.71A9.86,9.86,0,0,1,20.13,7.93Z"/></svg>