<?xml version="1.0" encoding="utf-8"?>
<!-- Generator: Adobe Illustrator 21.0.2, SVG Export Plug-In . SVG Version: 6.00 Build 0)  -->
<svg version="1.1" id="Layer_1" xmlns="http://www.w3.org/2000/svg" xmlns:xlink="http://www.w3.org/1999/xlink" x="0px" y="0px"
	 viewBox="0 0 23.7 20" style="enable-background:new 0 0 23.7 20;" xml:space="preserve">
<style type="text/css">
	.st0{fill:#FFD700;}
</style>
<title>icon-meeting</title>
<path class="st0" d="M22.8,15.9c-1.9,3.8-7,4.2-10.7,4.2s-9.2-0.3-11.2-4.2c-0.7-1.5-1-3.1-0.9-4.7C-0.1,9.1,0.6,7.1,2,5.5
	C1.7,4.7,1.6,3.9,1.6,3.1C1.6,2,1.8,1,2.3,0C4.5,0,6,1,7.7,2.3c1.4-0.3,2.9-0.5,4.4-0.5c1.3,0,2.7,0.1,4,0.5C17.8,1,19.2,0,21.4,0
	c0.5,1,0.7,2,0.7,3.1c0,0.8-0.1,1.6-0.4,2.4c1.3,1.6,2,3.6,1.9,5.7C23.8,12.8,23.5,14.4,22.8,15.9z M16.8,9.6
	c-0.9,0-1.9,0.1-2.8,0.3C13.3,10,12.6,10,11.8,10c-0.7,0-1.5,0-2.2-0.2C8.7,9.7,7.7,9.6,6.8,9.6c-2.3,0-3.6,1.9-3.6,4.1
	c0,4.4,4,5,7.5,5H13c3.5,0,7.5-0.7,7.5-5C20.5,11.5,19.2,9.6,16.8,9.6L16.8,9.6z M7.3,16.4c-1.3,0-1.8-1.7-1.8-2.7s0.5-2.7,1.8-2.7
	s1.8,1.7,1.8,2.7S8.6,16.4,7.3,16.4z M16.4,16.4c-1.3,0-1.8-1.7-1.8-2.7s0.5-2.7,1.8-2.7c1.3,0,1.8,1.7,1.8,2.7S17.7,16.4,16.4,16.4
	z"/>
</svg>
