<svg id="Layer_1" data-name="Layer 1" xmlns="http://www.w3.org/2000/svg" viewBox="0 0 46.96 38.14"><defs><style>.cls-1{fill:#e5e8ea;}</style></defs><title>ico-gray-twitter</title><path class="cls-1" d="M42.13,9.5c0,.42,0,.83,0,1.25,0,12.72-9.68,27.38-27.38,27.38A27.2,27.2,0,0,1,0,33.82a19.9,19.9,0,0,0,2.32.12,19.27,19.27,0,0,0,11.95-4.11,9.64,9.64,0,0,1-9-6.67,12.13,12.13,0,0,0,1.82.15A10.17,10.17,0,0,0,9.62,23a9.63,9.63,0,0,1-7.72-9.45v-.12a9.69,9.69,0,0,0,4.35,1.22,9.64,9.64,0,0,1-3-12.87A27.36,27.36,0,0,0,23.12,11.83a10.86,10.86,0,0,1-.24-2.2A9.63,9.63,0,0,1,39.54,3,19,19,0,0,0,45.65.72,9.6,9.6,0,0,1,41.42,6,19.3,19.3,0,0,0,47,4.53,20.69,20.69,0,0,1,42.13,9.5Z"/></svg>