<svg id="Layer_1" data-name="Layer 1" xmlns="http://www.w3.org/2000/svg" viewBox="0 0 31.84 30.38"><defs><style>.cls-1{fill:gold;}</style></defs><title>icon-meeting</title><path class="cls-1" d="M26.6,16.51c.18.4.38.78.52,1.18a5.58,5.58,0,0,1-5.39,7.48c-.12,0-.16,0-.2.15a3.84,3.84,0,0,1-6.09,1.95l-.19-.15a4.2,4.2,0,0,1-1.09.68,5.17,5.17,0,0,1-6.81-2.6,5.24,5.24,0,0,1-.45-1.88c0-.11,0-.14-.15-.17a4.55,4.55,0,0,1-3.6-3A4.67,4.67,0,0,1,4.31,15c.09-.1.11-.15,0-.28a4.44,4.44,0,0,1,2.33-6.4,7.48,7.48,0,0,1,.82-.2A.21.21,0,0,0,7.67,8a6.58,6.58,0,0,1,2.55-3.11,6.39,6.39,0,0,1,2.95-1,6.66,6.66,0,0,1,4.15,1,.35.35,0,0,0,.32,0,5.87,5.87,0,0,1,7.41,3.56,5.62,5.62,0,0,1,.32,2.33.16.16,0,0,0,.13.2,3.11,3.11,0,0,1,2.17,2.47,3.17,3.17,0,0,1-.95,3l-.15.14S26.59,16.53,26.6,16.51ZM20.79,22a2.55,2.55,0,0,0,1.2-.19.74.74,0,0,0,.44-.76.73.73,0,0,0-.52-.71,5.4,5.4,0,0,0-.56-.14c-.35-.08-.71-.13-1-.24a.69.69,0,0,1-.47-.64,3.06,3.06,0,0,1,.11-1.07,16.87,16.87,0,0,1,.93-2.48c.39-.9.77-1.81,1.13-2.72a2.62,2.62,0,0,0,.2-1.51,1.7,1.7,0,0,0-.9-1.32,2.6,2.6,0,0,0-2.43,0,.48.48,0,0,1-.69-.08c-.15-.14-.3-.27-.44-.41a1.61,1.61,0,0,0-1.91-.08l-.56.47a4.45,4.45,0,0,1-.48.35.64.64,0,0,1-.64,0c-.43-.21-.86-.42-1.3-.6a1.78,1.78,0,0,0-.72-.16,2.67,2.67,0,0,0-2.38,1.48,8.65,8.65,0,0,0-.44,1c-.78,2.1-1.4,4.24-2,6.38a1.94,1.94,0,0,0,.51,2,2.29,2.29,0,0,0,1.77.64,1.66,1.66,0,0,0,1.48-1,3.41,3.41,0,0,0,.18-.37L13,15.38c.23-.58.46-1.16.7-1.73a.75.75,0,0,1,.76-.42.66.66,0,0,1,.51.66,2.09,2.09,0,0,1-.13.68c-.43,1.11-.87,2.21-1.31,3.31a7.54,7.54,0,0,0-.32.91.83.83,0,0,0,.45,1,1.36,1.36,0,0,0,1.61-.35,3.58,3.58,0,0,0,.39-.62l2.75-5.4a3.08,3.08,0,0,1,.3-.46.8.8,0,0,1,.24-.21.54.54,0,0,1,.54,0,.41.41,0,0,1,.17.44,1.29,1.29,0,0,1-.09.39c-.21.47-.42.94-.64,1.41-.48,1-1,2.07-1.46,3.11a2.26,2.26,0,0,0-.2,1.3,2.67,2.67,0,0,0,1.8,2.25A5.13,5.13,0,0,0,20.79,22Z"/><path class="cls-1" d="M24.94,27.54a1.38,1.38,0,0,1-2.76,0,1.38,1.38,0,1,1,2.76,0Z"/><path class="cls-1" d="M1.32,15.85a1.31,1.31,0,1,1,1.32-1.31A1.32,1.32,0,0,1,1.32,15.85Z"/><path class="cls-1" d="M17.82,3.46a1.3,1.3,0,1,1,1.31-1.3A1.29,1.29,0,0,1,17.82,3.46Z"/><path class="cls-1" d="M27.61,10.27a1.11,1.11,0,1,1,1.12-1.11A1.11,1.11,0,0,1,27.61,10.27Z"/><path class="cls-1" d="M6.38,6.9a1,1,0,1,1,1-1A1,1,0,0,1,6.38,6.9Z"/><path class="cls-1" d="M14.29,29.53a.83.83,0,0,1,.84-.85.84.84,0,0,1,.85.85.86.86,0,0,1-.85.84A.85.85,0,0,1,14.29,29.53Z"/><path class="cls-1" d="M30.43,16.83a.83.83,0,1,1-.82-.83A.82.82,0,0,1,30.43,16.83Z"/><path class="cls-1" d="M9.26,0a.69.69,0,0,1,.7.69.7.7,0,0,1-.7.7A.71.71,0,0,1,8.57.7.7.7,0,0,1,9.26,0Z"/><path class="cls-1" d="M31.84,12.77a.6.6,0,0,1-.62.6.61.61,0,0,1-.6-.61.62.62,0,0,1,.62-.61A.61.61,0,0,1,31.84,12.77Z"/><circle class="cls-1" cx="5.4" cy="24.71" r="0.61" transform="translate(-19.32 30.07) rotate(-89.93)"/></svg>