<svg id="Layer_1" data-name="Layer 1" xmlns="http://www.w3.org/2000/svg" viewBox="0 0 22.44 18.22"><defs><style>.cls-1{fill:gold;}</style></defs><title>icon-twitter</title><path class="cls-1" d="M20.13,4.54c0,.2,0,.4,0,.6A13,13,0,0,1,7.06,18.22,13,13,0,0,1,0,16.16a9.48,9.48,0,0,0,1.11.06,9.21,9.21,0,0,0,5.71-2,4.61,4.61,0,0,1-4.3-3.19,5.79,5.79,0,0,0,.87.07A4.87,4.87,0,0,0,4.6,11,4.6,4.6,0,0,1,.91,6.46V6.41A4.63,4.63,0,0,0,3,7,4.61,4.61,0,0,1,1.57.84,13.07,13.07,0,0,0,11,5.65a5.19,5.19,0,0,1-.11-1.05,4.6,4.6,0,0,1,8-3.15A9.06,9.06,0,0,0,21.81.34a4.59,4.59,0,0,1-2,2.53,9.2,9.2,0,0,0,2.65-.71A9.86,9.86,0,0,1,20.13,4.54Z"/></svg>