<svg id="Layer_1" data-name="Layer 1" xmlns="http://www.w3.org/2000/svg" viewBox="0 0 52.78 133.35"><defs><style>.cls-1{fill:#fff;}.cls-2{fill:gold;}</style></defs><title>ill-building-1</title><polygon class="cls-1" points="5.52 120.86 27.5 120.86 27.5 112.17 52.78 112.17 52.78 72.5 48.72 72.5 48.72 61.05 44.58 61.05 44.58 30.53 40.28 0 35.99 30.53 16.79 30.53 12.5 0 8.21 30.53 8.21 61.05 4.06 61.05 4.06 72.5 0 72.5 0 127.83 5.52 133.35 5.52 120.86"/><polygon class="cls-2" points="17.45 36.05 41.52 36.05 43.43 22.41 40.28 0 35.99 30.53 16.79 30.53 17.45 36.05"/><polygon class="cls-2" points="9.59 78.03 9.59 66.58 13.73 66.58 13.73 36.05 15.65 22.41 12.5 0 8.21 30.53 8.21 61.05 4.06 61.05 4.06 72.5 0 72.5 0 127.83 5.52 133.35 5.52 78.03 9.59 78.03"/></svg>