<svg id="Layer_1" data-name="Layer 1" xmlns="http://www.w3.org/2000/svg" viewBox="0 0 241.11 43.06"><defs><style>.cls-1{fill:gold;}.cls-2{fill:#fff;}.cls-3{fill:#6b11ff;}</style></defs><title>ill-bridge</title><polygon class="cls-1" points="120.55 21.53 140.89 0 100.22 0 120.55 21.53"/><polygon class="cls-2" points="120.55 21.53 134.34 6.93 106.77 6.93 120.55 21.53"/><polygon class="cls-1" points="33.43 43.06 0 43.06 33.43 11.27 33.43 43.06"/><polygon class="cls-2" points="33.43 43.06 9.66 43.06 33.43 20.46 33.43 43.06"/><polygon class="cls-3" points="33.43 43.06 63.56 43.06 33.43 11.27 33.43 43.06"/><polygon class="cls-1" points="38.96 43.06 63.56 43.06 38.96 17.11 38.96 43.06"/><polygon class="cls-1" points="63.56 4.39 33.43 11.27 63.56 43.06 63.56 4.39"/><polygon class="cls-2" points="63.56 11.41 38.9 17.04 63.56 43.06 63.56 11.41"/><polygon class="cls-3" points="63.56 43.06 100.22 43.06 63.56 4.39 63.56 43.06"/><polygon class="cls-1" points="69.59 43.06 100.22 43.06 69.59 10.74 69.59 43.06"/><polygon class="cls-1" points="63.56 4.39 100.22 43.06 100.22 0 63.56 4.39"/><polygon class="cls-2" points="69.59 10.74 100.22 43.06 100.22 7.08 69.59 10.74"/><polygon class="cls-1" points="207.68 43.06 241.1 43.06 207.68 11.27 207.68 43.06"/><polygon class="cls-2" points="207.68 43.06 231.44 43.06 207.68 20.46 207.68 43.06"/><polygon class="cls-3" points="207.68 43.06 202.14 43.06 202.14 17.11 207.68 11.27 207.68 43.06"/><polygon class="cls-1" points="202.14 43.06 177.54 43.06 202.14 17.11 202.14 43.06"/><polygon class="cls-1" points="177.54 4.39 207.68 11.27 177.54 43.06 177.54 4.39"/><polygon class="cls-2" points="177.54 11.41 202.21 17.04 177.54 43.06 177.54 11.41"/><polygon class="cls-3" points="177.54 43.06 140.89 43.06 177.54 4.39 177.54 43.06"/><polygon class="cls-1" points="171.52 43.06 140.89 43.06 171.52 10.74 171.52 43.06"/><polygon class="cls-1" points="177.54 4.39 140.89 43.06 140.89 0 177.54 4.39"/><polygon class="cls-2" points="171.52 10.74 140.89 43.06 140.89 7.08 171.52 10.74"/><polygon class="cls-3" points="100.22 0 100.22 43.06 106.77 43.06 106.77 6.93 100.22 0"/><polygon class="cls-3" points="140.89 0 134.34 6.93 134.34 43.06 140.89 43.06 140.89 0"/><polygon class="cls-1" points="120.55 21.53 106.77 6.93 106.77 43.06 134.34 43.06 134.34 6.93 120.55 21.53"/></svg>