<svg id="Layer_1" data-name="Layer 1" xmlns="http://www.w3.org/2000/svg" viewBox="0 0 146.94 39.23"><defs><style>.cls-1{fill:#fff;}.cls-2{fill:gold;}</style></defs><title>ill-boat-lg</title><polygon class="cls-1" points="134.59 27.13 122.25 22.59 122.25 17.79 109.9 13.28 109.9 9.95 97.55 5.45 85.77 5.45 85.77 0 56.61 0 56.61 5.45 24.34 5.45 24.34 13.28 11.11 13.28 11.11 33.78 0 33.78 5.45 39.23 138.54 39.23 138.54 33.15 134.59 27.13"/><rect class="cls-1" x="141.64" y="25.67" width="5.3" height="2.93"/><rect class="cls-1" x="131.94" y="15.97" width="5.3" height="2.93" transform="translate(152.03 -117.16) rotate(90)"/><rect class="cls-1" x="125.08" y="18.81" width="5.3" height="2.93" transform="translate(51.75 -84.38) rotate(45)"/><rect class="cls-1" x="138.8" y="32.52" width="5.3" height="2.93" transform="translate(65.46 -90.06) rotate(45)"/><rect class="cls-1" x="138.8" y="18.81" width="5.3" height="2.93" transform="translate(255.8 -65.41) rotate(135)"/><rect class="cls-2" x="11.11" y="13.28" width="5.45" height="20.5" transform="translate(27.67 47.07) rotate(180)"/><rect class="cls-2" x="24.34" y="5.45" width="5.45" height="13.28" transform="translate(54.12 24.18) rotate(180)"/><rect class="cls-2" x="56.61" width="5.45" height="10.89" transform="translate(118.66 10.89) rotate(180)"/><rect class="cls-2" x="17.72" y="6.67" width="5.45" height="18.67" transform="translate(4.44 36.45) rotate(-90)"/><rect class="cls-2" x="37.75" y="-7.97" width="5.45" height="32.27" transform="translate(32.3 48.64) rotate(-90)"/><rect class="cls-2" x="68.46" y="-11.86" width="5.45" height="29.16" transform="translate(68.46 73.91) rotate(-90)"/><polygon class="cls-2" points="5.45 39.23 0 33.78 16.56 33.78 16.56 39.23 5.45 39.23"/></svg>