<svg id="Layer_1" data-name="Layer 1" xmlns="http://www.w3.org/2000/svg" viewBox="0 0 80.48 94.82"><defs><style>.cls-1{fill:gold;}.cls-2{fill:#fff;}</style></defs><title>ill-building-2</title><polygon class="cls-1" points="49.76 62.9 49.76 38.09 73.31 38.09 73.31 9.41 65.28 0 39.48 0 32.45 9.41 32.45 80.21 49.76 62.9"/><polygon class="cls-1" points="80.48 69.54 80.48 43.53 55.2 43.53 55.2 94.82 80.48 69.54"/><polygon class="cls-2" points="73.31 9.41 69.92 5.44 42.48 5.44 37.9 11.76 37.9 74.77 49.76 62.9 49.76 38.09 73.31 38.09 73.31 9.41"/><polygon class="cls-2" points="27.01 60.41 27.01 26.73 12.56 26.73 7.3 40.97 2.05 40.97 0 87.42 27.01 60.41"/><polygon class="cls-1" points="5.44 81.98 5.44 45.38 10.46 45.38 15.72 31.14 27.01 31.14 27.01 25.7 11.54 25.7 6.28 39.94 0 39.94 0 87.42 5.44 81.98"/></svg>