<?xml version="1.0" encoding="utf-8"?>
<!-- Generator: Adobe Illustrator 21.0.2, SVG Export Plug-In . SVG Version: 6.00 Build 0)  -->
<svg version="1.1" id="Layer_1" xmlns="http://www.w3.org/2000/svg" xmlns:xlink="http://www.w3.org/1999/xlink" x="0px" y="0px"
	 viewBox="0 0 326.5 44.3" style="enable-background:new 0 0 326.5 44.3;" xml:space="preserve">
<style type="text/css">
	.st0{fill:#FFFFFF;}
	.st1{fill:#FFD700;}
</style>
<title>logo-nashphp-hor</title>
<polygon class="st0" points="87.5,20.2 78,20.2 78,8.6 72.6,8.6 72.6,35.7 78,35.7 78,25.4 87.5,25.4 87.5,35.7 92.9,35.7 92.9,8.6 
	87.5,8.6 "/>
<rect x="123.9" y="8.6" class="st0" width="5.6" height="27"/>
<polygon class="st0" points="141,8.6 135.6,8.6 135.6,35.7 147.3,35.7 148.9,30.5 141,30.5 "/>
<polygon class="st0" points="157.9,8.6 152.6,8.6 152.6,35.7 164.2,35.7 165.9,30.5 157.9,30.5 "/>
<polygon class="st0" points="174.9,30.5 174.9,25.1 183.7,25.1 183.7,20 174.9,20 174.9,13.8 186.2,13.8 184.6,8.6 169.5,8.6 
	169.5,35.7 184.8,35.7 186.4,30.5 "/>
<polygon class="st0" points="108.6,27.1 102.5,8.6 96.8,8.6 106,36.3 111.1,36.3 120.3,8.6 114.6,8.6 "/>
<polygon class="st0" points="15.2,25.3 4.6,8.6 0,8.6 0,35.7 5.4,35.7 5.4,19 15.9,35.7 20.6,35.7 20.6,35.7 20.6,8.6 15.2,8.6 "/>
<path class="st0" d="M60.8,19.6h-4.5c-1.6-0.1-2.8-1.5-2.7-3c0.1-1.5,1.2-2.6,2.7-2.7h10.9l-1.6-5.2h-9.3c-4.4,0-8,3.6-8,8
	s3.6,8,8,8l0,0h4.5c1.6,0.1,2.8,1.5,2.7,3c-0.1,1.5-1.2,2.6-2.7,2.7H49l1.6,5.2h10.1c4.4,0,8-3.6,8-8S65.2,19.6,60.8,19.6L60.8,19.6
	z"/>
<polygon class="st0" points="47.1,35.7 37.9,8 32.8,8 23.6,35.7 29.3,35.7 35.3,17.2 38.6,27.1 35.6,27.1 34,31.9 40.2,31.9 
	41.4,35.7 "/>
<polygon class="st0" points="277.1,21.6 277.1,7.4 282.3,7.4 284.1,5.5 284.1,0 269.7,0 269.7,14.3 258.3,14.3 258,15.9 263.4,21.6 
	"/>
<polygon class="st0" points="258.3,5.5 258.3,0 243.9,0 243.9,44.3 249.4,44.3 251.3,43.1 251.3,7.4 256.4,7.4 "/>
<polygon class="st0" points="269.7,30 269.7,44.3 275.2,44.3 277.1,42.3 277.1,35.5 270.8,29.2 "/>
<polygon class="st1" points="284.1,5.5 275.2,5.5 275.2,19.8 263.8,19.8 258.3,14.3 258.3,5.5 249.4,5.5 249.4,44.3 258.3,44.3 
	258.3,30 269.7,30 275.2,35.5 275.2,44.3 284.1,44.3 "/>
<path class="st0" d="M233.7,7.9c-3-4.9-8.3-7.9-14-7.9h-15.9v44.3h5.5l1.9-1.4V7.9H233.7z"/>
<path class="st1" d="M218.2,44.3V32.7h1.6c9,0,16.3-7.3,16.4-16.3c0-3-0.8-6-2.4-8.5c-2.5-1.6-5.5-2.4-8.5-2.4h-15.9v38.8H218.2
	L218.2,44.3z"/>
<path class="st0" d="M324.2,7.9c-3-4.9-8.3-7.9-14-7.9h-15.9v44.3h5.5l1.9-1.4V7.9H324.2z"/>
<path class="st1" d="M308.7,44.3V32.7h1.5c9,0,16.3-7.3,16.4-16.3c0-3-0.8-6-2.4-8.5c-2.5-1.6-5.5-2.4-8.5-2.4h-15.9v38.8H308.7
	L308.7,44.3z"/>
</svg>
