<svg id="Layer_1" data-name="Layer 1" xmlns="http://www.w3.org/2000/svg" viewBox="0 0 108.74 76.35"><defs><style>.cls-1{fill:#fff;}</style></defs><title>logo-cakedc</title><path class="cls-1" d="M54.37,17l11.31,2.81c2-.77,3.15-1.75,3.15-2.81V12.45c0-2.49-6.47-4.51-14.46-4.51s-14.45,2-14.45,4.51V17c0,2.5,6.47,4.51,14.45,4.51Z"/><path class="cls-1" d="M65.67,24.29,54.37,21.48V26L65.67,28.8c2-.77,3.15-1.75,3.15-2.81V21.48C68.82,22.54,67.64,23.52,65.67,24.29Z"/><path class="cls-1" d="M39.91,21.48V26c0,2.49,6.47,4.51,14.45,4.51V26C46.39,26,39.91,24,39.91,21.48Z"/><path class="cls-1" d="M76.84,2.47V36h-45V2.47h45M79.31,0H29.42V38.45H79.31V0Z"/><path class="cls-1" d="M18.07,62.37A8,8,0,0,1,10,54.26v0a8,8,0,0,1,8.23-8.16,8.14,8.14,0,0,1,6.22,2.43L22.21,51a5.82,5.82,0,0,0-4-1.78,4.67,4.67,0,0,0-4.57,4.91v0a4.69,4.69,0,0,0,4.57,5,5.69,5.69,0,0,0,4.15-1.85l2.21,2.23A8.06,8.06,0,0,1,18.07,62.37Z"/><path class="cls-1" d="M34,62.1V60.79a4.65,4.65,0,0,1-3.65,1.53c-2.28,0-4.15-1.31-4.15-3.7v0c0-2.64,2-3.85,4.87-3.85a8.57,8.57,0,0,1,3,.5V55c0-1.42-.88-2.21-2.59-2.21a8.9,8.9,0,0,0-3.33.65l-.86-2.61a10.69,10.69,0,0,1,4.69-1c3.74,0,5.39,1.94,5.39,5.21v7Zm.07-4.87a5.31,5.31,0,0,0-2.19-.45c-1.46,0-2.37.59-2.37,1.67v0c0,.92.77,1.46,1.87,1.46,1.6,0,2.68-.88,2.68-2.12Z"/><path class="cls-1" d="M48.08,62.1l-3.15-4.94-1.19,1.26V62.1H40.3V45.65h3.43v8.77l4-4.39h4.1l-4.6,4.76L52,62.1Z"/><path class="cls-1" d="M64.31,57.25H55.9a2.8,2.8,0,0,0,3,2.37,4,4,0,0,0,2.93-1.24l2,1.74a6.38,6.38,0,0,1-11.25-4v0a6,6,0,0,1,6-6.29c4,0,5.88,3.13,5.88,6.56v0C64.35,56.73,64.33,56.94,64.31,57.25Zm-5.84-4.71c-1.42,0-2.35,1-2.61,2.57H61A2.59,2.59,0,0,0,58.47,52.54Z"/><path class="cls-1" d="M73.42,62.1H67.27V46.32h6.15c5,0,8.38,3.4,8.38,7.84v0C81.81,58.65,78.38,62.1,73.42,62.1Zm4.75-7.89a4.53,4.53,0,0,0-4.75-4.76H70.74V59h2.68a4.5,4.5,0,0,0,4.75-4.71Z"/><path class="cls-1" d="M92.3,62.37a8,8,0,0,1-8.09-8.11v0a8,8,0,0,1,8.23-8.16,8.14,8.14,0,0,1,6.22,2.43L96.44,51a5.82,5.82,0,0,0-4-1.78,4.67,4.67,0,0,0-4.57,4.91v0a4.69,4.69,0,0,0,4.57,5,5.69,5.69,0,0,0,4.15-1.85l2.21,2.23A8.06,8.06,0,0,1,92.3,62.37Z"/><polygon class="cls-1" points="1.48 69.54 2.11 69.54 0.78 74.48 3.89 74.48 3.73 75.06 0 75.06 1.48 69.54"/><path class="cls-1" d="M5.14,73.4a1.15,1.15,0,0,0,1.23,1.23,1.87,1.87,0,0,0,1.26-.48l.31.4a2.33,2.33,0,0,1-1.6.61,1.68,1.68,0,0,1-1.81-1.73,2.52,2.52,0,0,1,2.37-2.53,1.48,1.48,0,0,1,1.58,1.57,2.2,2.2,0,0,1-.14.77H5.16a.89.89,0,0,0,0,.17m2.72-.63a1.09,1.09,0,0,0,0-.31,1,1,0,0,0-1-1.05,1.78,1.78,0,0,0-1.64,1.36Z"/><path class="cls-1" d="M9.4,74.33a1.86,1.86,0,0,1,.06-.43l.64-2.38H9.54L9.68,71h.57l.33-1.23h.61L10.85,71h1.29l-.14.54H10.71l-.63,2.35a1.57,1.57,0,0,0,0,.3c0,.29.22.42.56.42a1.62,1.62,0,0,0,.59-.13L11,75a1.66,1.66,0,0,1-.65.12c-.58,0-1-.28-1-.8"/><path class="cls-1" d="M13,71.05a.87.87,0,0,0,.74-.69h-.29l.23-.83h.73l-.2.71A1.27,1.27,0,0,1,13,71.32Z"/><path class="cls-1" d="M13.8,74.44l.4-.39a2,2,0,0,0,1.42.6c.46,0,.9-.27.9-.68s-.18-.46-.77-.7-1.16-.55-1.16-1.12.6-1.26,1.55-1.26a2.41,2.41,0,0,1,1.5.56l-.35.42a1.94,1.94,0,0,0-1.21-.47c-.58,0-.88.31-.88.65s.17.44.81.69,1.11.59,1.11,1.12a1.41,1.41,0,0,1-1.57,1.28,2.5,2.5,0,0,1-1.76-.71"/><path class="cls-1" d="M21.12,74.14l-.24.91h-.61l1.55-5.76h.61l-.65,2.38a2.07,2.07,0,0,1,1.55-.79,1.61,1.61,0,0,1,1.62,1.73,2.44,2.44,0,0,1-2.28,2.53,1.58,1.58,0,0,1-1.54-1m3.18-1.47a1.13,1.13,0,0,0-1.15-1.25,2,2,0,0,0-1.82,1.92,1.24,1.24,0,0,0,1.27,1.27,1.83,1.83,0,0,0,1.7-1.94"/><path class="cls-1" d="M25.79,73.89a2.51,2.51,0,0,1,.1-.63l.6-2.27h.61l-.62,2.31a2.48,2.48,0,0,0-.05.46.81.81,0,0,0,.9.85,1.67,1.67,0,0,0,1.48-1.33L29.42,71H30l-1.09,4.08h-.61l.18-.66a1.88,1.88,0,0,1-1.43.75,1.19,1.19,0,0,1-1.29-1.26"/><path class="cls-1" d="M31.46,71h.61L31,75.06h-.61Zm.38-1.56h.69l-.18.67h-.69Z"/><polygon class="cls-1" points="33.99 69.3 34.6 69.3 33.05 75.06 32.44 75.06 33.99 69.3"/><path class="cls-1" d="M34.73,73.43A2.44,2.44,0,0,1,37,70.89a1.57,1.57,0,0,1,1.53,1l.69-2.61h.6l-1.54,5.76H37.7l.18-.69a2,2,0,0,1-1.54.79,1.61,1.61,0,0,1-1.62-1.73m3.61-.74a1.22,1.22,0,0,0-1.27-1.26,1.83,1.83,0,0,0-1.7,1.94,1.14,1.14,0,0,0,1.16,1.25,2,2,0,0,0,1.81-1.93"/><path class="cls-1" d="M41.31,76.06l.33-.46a1.15,1.15,0,0,0,.62.21c.34,0,.65-.18,1.06-.76L42.59,71h.63l.57,3.4L46,71h.69L43.88,75.2c-.58.85-1.06,1.15-1.67,1.15a1.52,1.52,0,0,1-.89-.29"/><path class="cls-1" d="M46.66,73.32a2.48,2.48,0,0,1,2.4-2.43,1.76,1.76,0,0,1,1.86,1.82,2.49,2.49,0,0,1-2.41,2.44,1.76,1.76,0,0,1-1.85-1.83m3.64-.58A1.2,1.2,0,0,0,49,71.43a1.89,1.89,0,0,0-1.75,1.88,1.2,1.2,0,0,0,1.28,1.3,1.89,1.89,0,0,0,1.74-1.87"/><path class="cls-1" d="M51.77,73.89a2.57,2.57,0,0,1,.1-.63l.6-2.27h.61l-.62,2.31a2.17,2.17,0,0,0-.05.46.81.81,0,0,0,.91.85,1.67,1.67,0,0,0,1.47-1.33L55.4,71H56l-1.08,4.08h-.61l.18-.66a1.88,1.88,0,0,1-1.43.75,1.2,1.2,0,0,1-1.3-1.26"/><path class="cls-1" d="M57.37,71H58L57.7,72a2.23,2.23,0,0,1,1.94-1.14l-.18.65h0a2.28,2.28,0,0,0-2.11,1.89l-.43,1.61h-.61Z"/><polygon class="cls-1" points="62.12 70.98 62.76 70.98 63.22 74.37 65.47 70.98 66.16 70.98 63.31 75.09 62.78 75.09 62.12 70.98"/><path class="cls-1" d="M67.18,71h.6l-1.1,4.08h-.6Zm.38-1.56h.69l-.18.67h-.69Z"/><path class="cls-1" d="M67.93,74.44l.4-.39a2,2,0,0,0,1.42.6c.47,0,.9-.27.9-.68s-.18-.46-.77-.7-1.15-.55-1.15-1.12.6-1.26,1.55-1.26a2.43,2.43,0,0,1,1.51.56l-.35.42a2,2,0,0,0-1.21-.47c-.58,0-.89.31-.89.65s.17.44.81.69,1.11.59,1.11,1.12a1.41,1.41,0,0,1-1.56,1.28,2.5,2.5,0,0,1-1.76-.71"/><path class="cls-1" d="M73.18,71h.61l-1.1,4.08h-.6Zm.38-1.56h.7l-.18.67h-.7Z"/><path class="cls-1" d="M74.36,73.32a2.48,2.48,0,0,1,2.4-2.43,1.76,1.76,0,0,1,1.86,1.82,2.49,2.49,0,0,1-2.41,2.44,1.75,1.75,0,0,1-1.85-1.83M78,72.74a1.21,1.21,0,0,0-1.28-1.31A1.89,1.89,0,0,0,75,73.31a1.2,1.2,0,0,0,1.28,1.3A1.89,1.89,0,0,0,78,72.74"/><path class="cls-1" d="M80.23,71h.61l-.17.66a1.87,1.87,0,0,1,1.42-.75,1.2,1.2,0,0,1,1.3,1.26,2.47,2.47,0,0,1-.1.63l-.6,2.27h-.61l.61-2.31a1.86,1.86,0,0,0,.06-.46.81.81,0,0,0-.91-.85,1.68,1.68,0,0,0-1.48,1.32l-.61,2.3h-.61Z"/><path class="cls-1" d="M86.81,74.33a1.78,1.78,0,0,1,.05-.43l.64-2.38h-.56l.15-.54h.57L88,69.75h.6L88.26,71h1.29l-.15.54H88.12l-.64,2.35a2.37,2.37,0,0,0,0,.3c0,.29.21.42.56.42a1.64,1.64,0,0,0,.59-.13l-.15.55a1.65,1.65,0,0,1-.65.12c-.58,0-1-.28-1-.8"/><path class="cls-1" d="M89.68,73.32a2.48,2.48,0,0,1,2.4-2.43,1.76,1.76,0,0,1,1.86,1.82,2.48,2.48,0,0,1-2.4,2.44,1.76,1.76,0,0,1-1.86-1.83m3.64-.58A1.21,1.21,0,0,0,92,71.43a1.89,1.89,0,0,0-1.74,1.88,1.2,1.2,0,0,0,1.28,1.3,1.89,1.89,0,0,0,1.75-1.87"/><path class="cls-1" d="M94.73,73.43A2.44,2.44,0,0,1,97,70.89a1.56,1.56,0,0,1,1.53,1l.7-2.61h.61l-1.54,5.76H97.7l.18-.69a2,2,0,0,1-1.54.79,1.61,1.61,0,0,1-1.62-1.73m3.6-.74a1.22,1.22,0,0,0-1.26-1.26,1.84,1.84,0,0,0-1.71,1.94,1.15,1.15,0,0,0,1.16,1.25,2,2,0,0,0,1.81-1.93"/><path class="cls-1" d="M99.68,74c0-.92.76-1.48,1.81-1.48a5.43,5.43,0,0,1,1.45.22l0-.1a1.62,1.62,0,0,0,.06-.38c0-.53-.36-.83-1.11-.83a3.28,3.28,0,0,0-1.15.21l-.1-.51a3.68,3.68,0,0,1,1.35-.25c1,0,1.6.48,1.6,1.27a2,2,0,0,1-.09.56l-.61,2.31h-.59l.17-.64a2,2,0,0,1-1.52.72A1.17,1.17,0,0,1,99.68,74m3.08-.56.08-.28a4.81,4.81,0,0,0-1.33-.19c-.72,0-1.22.39-1.22,1s.34.73.87.73a1.71,1.71,0,0,0,1.6-1.22"/><path class="cls-1" d="M103.25,76.06l.33-.46a1.14,1.14,0,0,0,.62.21c.35,0,.66-.18,1.07-.76L104.52,71h.63l.57,3.4,2.19-3.4h.68l-2.79,4.21c-.58.85-1.07,1.15-1.67,1.15a1.52,1.52,0,0,1-.89-.29"/><polygon class="cls-1" points="108.02 74.23 108.74 74.23 108.52 75.06 107.79 75.06 108.02 74.23"/></svg>