<svg id="Layer_1" data-name="Layer 1" xmlns="http://www.w3.org/2000/svg" viewBox="0 0 107 61.12"><defs><style>.cls-1{fill:#fff;}.cls-2{fill:gold;}</style></defs><title>logo-nashphp-bluebg</title><polygon class="cls-1" points="49.53 6.89 44.18 6.89 44.18 0.35 41.12 0.35 41.12 15.64 44.18 15.64 44.18 9.81 49.53 9.81 49.53 15.64 52.59 15.64 52.59 0.35 49.53 0.35 49.53 6.89"/><rect class="cls-1" x="70.15" y="0.35" width="3.19" height="15.3"/><polygon class="cls-1" points="79.83 0.35 76.77 0.35 76.77 15.64 83.4 15.64 84.31 12.71 79.83 12.71 79.83 0.35"/><polygon class="cls-1" points="89.43 0.35 86.37 0.35 86.37 15.64 93 15.64 93.91 12.71 89.43 12.71 89.43 0.35"/><polygon class="cls-1" points="99.03 12.71 99.03 9.68 104 9.68 104 6.75 99.03 6.75 99.03 3.27 105.4 3.27 104.49 0.35 95.97 0.35 95.97 15.64 104.62 15.64 105.53 12.71 99.03 12.71"/><polygon class="cls-1" points="61.47 10.82 58.05 0.35 54.82 0.35 60.02 15.99 62.93 15.99 68.13 0.35 64.9 0.35 61.47 10.82"/><polygon class="cls-1" points="8.6 9.8 2.63 0.35 0 0.35 0 15.64 3.06 15.64 3.06 6.19 9.03 15.64 11.65 15.64 11.65 15.64 11.65 0.35 8.6 0.35 8.6 9.8"/><path class="cls-1" d="M34.4,6.53H31.84a1.62,1.62,0,0,1,0-3.25H38L37.09.36H31.84a4.55,4.55,0,1,0,0,9.1H34.4a1.62,1.62,0,0,1,0,3.25H27.75l.91,2.93H34.4a4.55,4.55,0,1,0,0-9.1Z"/><polygon class="cls-1" points="26.65 15.64 21.45 0 18.55 0 13.35 15.64 16.57 15.64 20 5.17 21.84 10.79 20.17 10.79 19.22 13.52 22.73 13.52 23.43 15.64 26.65 15.64"/><polygon class="cls-1" points="63.88 41.37 63.88 28.92 68.4 28.92 69.96 27.28 69.96 22.49 57.45 22.49 57.45 34.94 47.48 34.94 47.2 36.37 51.94 41.37 63.88 41.37"/><polygon class="cls-1" points="47.48 27.28 47.48 22.49 34.97 22.49 34.97 61.12 39.76 61.12 41.4 60.09 41.4 28.92 45.84 28.92 47.48 27.28"/><polygon class="cls-1" points="57.45 48.67 57.45 61.12 62.24 61.12 63.88 59.37 63.88 53.46 58.39 47.97 57.45 48.67"/><polygon class="cls-2" points="69.96 27.28 62.24 27.28 62.24 39.73 52.27 39.73 47.48 34.94 47.48 27.28 39.76 27.28 39.76 61.12 47.48 61.12 47.48 48.67 57.45 48.67 62.24 53.46 62.24 61.12 69.96 61.12 69.96 27.28"/><path class="cls-1" d="M26,29.35a14.24,14.24,0,0,0-12.17-6.85H0V61.12H4.79l1.64-1.19V29.35Z"/><path class="cls-2" d="M12.51,61.12V51h1.35A14.23,14.23,0,0,0,26,29.35a14.15,14.15,0,0,0-7.38-2.07H4.79V61.12h7.72Z"/><path class="cls-1" d="M104.93,29.35a14.24,14.24,0,0,0-12.17-6.85H78.9V61.12h4.79l1.64-1.19V29.35Z"/><path class="cls-2" d="M91.41,61.12V51h1.35a14.23,14.23,0,0,0,12.17-21.62,14.15,14.15,0,0,0-7.38-2.07H83.69V61.12h7.72Z"/></svg>