<?xml version="1.0" encoding="utf-8"?>
<!-- Generator: Adobe Illustrator 21.0.2, SVG Export Plug-In . SVG Version: 6.00 Build 0)  -->
<svg version="1.1" id="Layer_1" xmlns="http://www.w3.org/2000/svg" xmlns:xlink="http://www.w3.org/1999/xlink" x="0px" y="0px"
	 viewBox="0 0 760.8 331" style="enable-background:new 0 0 760.8 331;" xml:space="preserve">
<style type="text/css">
	.st0{fill:#F2F5F7;}
	.st1{fill:#6B11FF;}
	.st2{fill:#FFFFFF;}
	.st3{fill:#FFD700;}
	.st4{fill:#606C72;}
	.st5{fill:#4C575B;}
	.st6{clip-path:url(#SVGID_2_);}
	.st7{opacity:0.2;clip-path:url(#SVGID_2_);fill:#6B11FF;}
	.st8{fill:#D7D7DB;}
	.st9{fill:#E5E8EA;}
	.st10{fill:url(#SVGID_5_);}
	.st11{fill:#DA3C09;}
	.st12{clip-path:url(#SVGID_7_);}
	.st13{opacity:0.2;clip-path:url(#SVGID_7_);fill:url(#SVGID_8_);}
	.st14{fill:#F2F5F7;stroke:#F2F5F7;stroke-width:10;stroke-miterlimit:10;}
	.st15{fill:none;stroke:#6B11FF;stroke-width:2;stroke-miterlimit:10;}
	.st16{fill:none;stroke:#FFD700;stroke-width:2;stroke-miterlimit:10;}
	.st17{fill:none;stroke:#F2F5F7;stroke-width:2;stroke-miterlimit:10;}
	.st18{opacity:0.5;}
	.st19{clip-path:url(#SVGID_10_);}
	.st20{opacity:0.2;clip-path:url(#SVGID_10_);fill:#6B11FF;}
	.st21{clip-path:url(#SVGID_12_);}
	.st22{opacity:0.2;clip-path:url(#SVGID_12_);fill:url(#SVGID_13_);}
	.st23{clip-path:url(#SVGID_15_);}
	.st24{opacity:0.2;clip-path:url(#SVGID_15_);fill:url(#SVGID_16_);}
	.st25{clip-path:url(#SVGID_18_);}
	.st26{opacity:0.2;clip-path:url(#SVGID_18_);fill:url(#SVGID_19_);}
	.st27{opacity:0.2;clip-path:url(#SVGID_21_);fill:url(#SVGID_22_);}
	.st28{opacity:0.2;clip-path:url(#SVGID_24_);fill:url(#SVGID_25_);}
	.st29{opacity:0.2;clip-path:url(#SVGID_27_);fill:url(#SVGID_28_);}
	.st30{opacity:0.2;clip-path:url(#SVGID_30_);fill:url(#SVGID_31_);}
</style>
<g>
	
		<rect x="92.5" y="202.2" transform="matrix(0.7071 -0.7071 0.7071 0.7071 -118.8755 128.0736)" class="st3" width="5.3" height="10.7"/>
	
		<rect x="85.3" y="195.4" transform="matrix(0.7071 -0.7071 0.7071 0.7071 -112.7565 123.9764)" class="st2" width="16" height="5.3"/>
</g>
<g>
	
		<rect x="298.9" y="11.6" transform="matrix(0.7071 -0.7071 0.7071 0.7071 76.3301 218.2464)" class="st3" width="5.3" height="10.7"/>
	<rect x="291.7" y="4.9" transform="matrix(0.7071 -0.7071 0.7071 0.7071 82.4502 214.1492)" class="st2" width="16" height="5.3"/>
</g>
<g>
	
		<rect x="609.5" y="190.2" transform="matrix(0.7071 -0.7071 0.7071 0.7071 41.0345 490.132)" class="st3" width="5.3" height="10.7"/>
	
		<rect x="602.3" y="183.4" transform="matrix(0.7071 -0.7071 0.7071 0.7071 47.155 486.0362)" class="st2" width="16" height="5.3"/>
</g>
<rect x="752.5" y="201.2" transform="matrix(0.7071 -0.7071 0.7071 0.7071 75.1398 594.4697)" class="st3" width="5.3" height="10.7"/>
<rect x="745.3" y="194.4" transform="matrix(0.7071 -0.7071 0.7071 0.7071 81.2606 590.3745)" class="st2" width="16" height="5.3"/>
<g>
	
		<rect x="550.9" y="99.6" transform="matrix(0.7071 -0.7071 0.7071 0.7071 87.9134 422.2112)" class="st3" width="5.3" height="10.7"/>
	<rect x="543.7" y="92.9" transform="matrix(0.7071 -0.7071 0.7071 0.7071 94.034 418.115)" class="st2" width="16" height="5.3"/>
</g>
<g>
	<rect x="143.9" y="48" transform="matrix(0.7071 0.7071 -0.7071 0.7071 78.7671 -88.7635)" class="st2" width="5.3" height="5.3"/>
	
		<rect x="143.1" y="61.2" transform="matrix(0.7071 -0.7071 0.7071 0.7071 -1.7195 123.6655)" class="st2" width="10.7" height="5.3"/>
	<rect x="149.5" y="51" transform="matrix(0.7071 -0.7071 0.7071 0.7071 4.7238 124.1239)" class="st3" width="5.3" height="10.7"/>
</g>
<g>
	
		<rect x="1.1" y="138.4" transform="matrix(0.7071 0.7071 -0.7071 0.7071 100.8762 38.6576)" class="st2" width="5.3" height="5.3"/>
	
		<rect x="0.3" y="151.6" transform="matrix(0.7071 -0.7071 0.7071 0.7071 -107.4533 49.1987)" class="st2" width="10.7" height="5.3"/>
	
		<rect x="6.8" y="141.4" transform="matrix(0.7071 -0.7071 0.7071 0.7071 -101.0106 49.6569)" class="st3" width="5.3" height="10.7"/>
</g>
<g>
	
		<rect x="374.3" y="44.2" transform="matrix(0.7071 0.7071 -0.7071 0.7071 143.5425 -252.8387)" class="st2" width="5.3" height="5.3"/>
	
		<rect x="373.5" y="57.4" transform="matrix(0.7071 -0.7071 0.7071 0.7071 68.4959 285.4873)" class="st2" width="10.7" height="5.3"/>
	
		<rect x="380" y="47.2" transform="matrix(0.7071 -0.7071 0.7071 0.7071 74.9397 285.9462)" class="st3" width="5.3" height="10.7"/>
</g>
<g>
	
		<rect x="662.2" y="88" transform="matrix(0.7071 0.7071 -0.7071 0.7071 258.8717 -443.5759)" class="st2" width="5.3" height="5.3"/>
	
		<rect x="661.4" y="101.2" transform="matrix(0.7071 -0.7071 0.7071 0.7071 121.8175 501.909)" class="st2" width="10.7" height="5.3"/>
	
		<rect x="667.9" y="91" transform="matrix(0.7071 -0.7071 0.7071 0.7071 128.2618 502.3685)" class="st3" width="5.3" height="10.7"/>
</g>
<g>
	<rect x="250.9" y="306.6" class="st2" width="5.3" height="2.9"/>
	
		<rect x="241.2" y="296.9" transform="matrix(-1.836970e-16 1 -1 -1.836970e-16 542.2407 54.567)" class="st2" width="5.3" height="2.9"/>
	
		<rect x="234.3" y="299.8" transform="matrix(0.7071 0.7071 -0.7071 0.7071 282.4216 -79.3372)" class="st2" width="5.3" height="2.9"/>
	
		<rect x="248" y="313.5" transform="matrix(0.7071 0.7071 -0.7071 0.7071 296.1368 -85.0182)" class="st2" width="5.3" height="2.9"/>
	
		<rect x="248" y="299.8" transform="matrix(-0.7071 0.7071 -0.7071 -0.7071 640.9742 336.9886)" class="st2" width="5.3" height="2.9"/>
	
		<rect x="231.5" y="306.6" transform="matrix(-1 -8.994551e-11 8.994551e-11 -1 468.2775 616.204)" class="st2" width="5.3" height="2.9"/>
	
		<rect x="241.2" y="316.3" transform="matrix(8.977358e-11 -1 1 8.977358e-11 -73.9633 561.637)" class="st2" width="5.3" height="2.9"/>
	
		<rect x="234.3" y="313.5" transform="matrix(0.7071 -0.7071 0.7071 0.7071 -153.3005 259.8192)" class="st2" width="5.3" height="2.9"/>
</g>
<g>
	<polygon class="st2" points="243.8,308.1 231.5,303.6 231.5,298.8 219.1,294.3 219.1,290.9 206.8,286.4 195,286.4 195,281 
		165.9,281 165.9,286.4 133.6,286.4 133.6,294.3 120.4,294.3 120.4,314.8 109.2,314.8 114.7,320.2 247.8,320.2 247.8,314.1 	"/>
	<polygon class="st3" points="195,281 171.3,281 165.9,281 165.9,286.4 139,286.4 133.6,286.4 133.6,291.9 133.6,294.3 125.8,294.3 
		120.4,294.3 120.4,299.7 120.4,314.8 109.2,314.8 114.7,320.2 125.8,320.2 125.8,314.8 125.8,299.7 133.6,299.7 139,299.7 
		139,294.3 139,291.9 165.9,291.9 171.3,291.9 171.3,286.4 195,286.4 	"/>
</g>
<polygon class="st3" points="557.6,305.2 552.2,300 542.7,300 540.2,305.2 535,305.2 530.3,312.7 562.4,312.7 573.4,305.2 "/>
<polygon class="st3" points="638.9,323.5 633.6,318.4 624.1,318.4 621.6,323.5 616.4,323.5 611.7,331 643.8,331 654.8,323.5 "/>
</svg>
