<?xml version="1.0" encoding="utf-8"?>
<!-- Generator: Adobe Illustrator 21.0.2, SVG Export Plug-In . SVG Version: 6.00 Build 0)  -->
<svg version="1.1" id="Layer_1" xmlns="http://www.w3.org/2000/svg" xmlns:xlink="http://www.w3.org/1999/xlink" x="0px" y="0px"
	 viewBox="0 0 760.8 331" style="enable-background:new 0 0 760.8 331;" xml:space="preserve">
<style type="text/css">
	.st0{fill:#F2F5F7;}
	.st1{fill:#6B11FF;}
	.st2{fill:#FFFFFF;}
	.st3{fill:#FFD700;}
	.st4{fill:#606C72;}
	.st5{fill:#4C575B;}
	.st6{clip-path:url(#SVGID_2_);}
	.st7{opacity:0.2;clip-path:url(#SVGID_2_);fill:#6B11FF;}
	.st8{fill:#D7D7DB;}
	.st9{fill:#E5E8EA;}
	.st10{fill:url(#SVGID_5_);}
	.st11{fill:#DA3C09;}
	.st12{clip-path:url(#SVGID_7_);}
	.st13{opacity:0.2;clip-path:url(#SVGID_7_);fill:url(#SVGID_8_);}
	.st14{fill:#F2F5F7;stroke:#F2F5F7;stroke-width:10;stroke-miterlimit:10;}
	.st15{fill:none;stroke:#6B11FF;stroke-width:2;stroke-miterlimit:10;}
	.st16{fill:none;stroke:#FFD700;stroke-width:2;stroke-miterlimit:10;}
	.st17{fill:none;stroke:#F2F5F7;stroke-width:2;stroke-miterlimit:10;}
	.st18{opacity:0.5;}
	.st19{clip-path:url(#SVGID_10_);}
	.st20{opacity:0.2;clip-path:url(#SVGID_10_);fill:#6B11FF;}
	.st21{clip-path:url(#SVGID_12_);}
	.st22{opacity:0.2;clip-path:url(#SVGID_12_);fill:url(#SVGID_13_);}
	.st23{clip-path:url(#SVGID_15_);}
	.st24{opacity:0.2;clip-path:url(#SVGID_15_);fill:url(#SVGID_16_);}
	.st25{clip-path:url(#SVGID_18_);}
	.st26{opacity:0.2;clip-path:url(#SVGID_18_);fill:url(#SVGID_19_);}
	.st27{opacity:0.2;clip-path:url(#SVGID_21_);fill:url(#SVGID_22_);}
	.st28{opacity:0.2;clip-path:url(#SVGID_24_);fill:url(#SVGID_25_);}
	.st29{opacity:0.2;clip-path:url(#SVGID_27_);fill:url(#SVGID_28_);}
	.st30{opacity:0.2;clip-path:url(#SVGID_30_);fill:url(#SVGID_31_);}
</style>
<g>
	<polygon class="st2" points="213.4,210.5 235.3,210.5 235.3,201.8 260.6,201.8 260.6,162.1 256.6,162.1 256.6,150.7 252.4,150.7 
		252.4,120.1 248.1,89.6 243.8,120.1 224.6,120.1 220.3,89.6 216,120.1 216,150.7 211.9,150.7 211.9,162.1 207.8,162.1 207.8,217.4 
		213.4,223 	"/>
	<g>
		<polygon class="st3" points="225.3,125.7 249.3,125.7 251.3,112 248.1,89.6 243.8,120.1 224.6,120.1 		"/>
		<polygon class="st3" points="217.4,167.6 217.4,156.2 221.6,156.2 221.6,125.7 223.5,112 220.3,89.6 216,120.1 216,150.7 
			211.9,150.7 211.9,162.1 207.8,162.1 207.8,217.4 213.4,223 213.4,167.6 		"/>
	</g>
</g>
<g>
	<polygon class="st3" points="458.3,156.8 458.3,94 448.7,94 448.7,85.3 427.4,85.3 427.4,94 418.7,94 418.7,196.4 	"/>
	<polygon class="st2" points="458.3,156.8 458.3,99.5 448.7,99.5 448.7,94 448.7,90.7 432.9,90.7 432.9,99.5 424.2,99.5 
		424.2,190.9 	"/>
</g>
<g>
	<polygon class="st3" points="456.3,239.1 476.6,217.6 435.9,217.6 	"/>
	<polygon class="st2" points="456.3,239.1 470.1,224.5 442.5,224.5 	"/>
	<polygon class="st3" points="369.2,260.6 335.7,260.6 369.2,228.8 	"/>
	<polygon class="st2" points="369.2,260.6 345.4,260.6 369.2,238 	"/>
	<polygon class="st1" points="369.2,260.6 399.3,260.6 369.2,228.8 	"/>
	<polygon class="st3" points="374.7,260.6 399.3,260.6 374.7,234.7 	"/>
	<polygon class="st3" points="399.3,221.9 369.2,228.8 399.3,260.6 	"/>
	<polygon class="st2" points="399.3,229 374.6,234.6 399.3,260.6 	"/>
	<polygon class="st1" points="399.3,260.6 435.9,260.6 399.3,221.9 	"/>
	<polygon class="st3" points="405.3,260.6 435.9,260.6 405.3,228.3 	"/>
	<polygon class="st3" points="399.3,221.9 435.9,260.6 435.9,217.6 	"/>
	<polygon class="st2" points="405.3,228.3 435.9,260.6 435.9,224.6 	"/>
	<polygon class="st3" points="543.4,260.6 576.8,260.6 543.4,228.8 	"/>
	<polygon class="st2" points="543.4,260.6 567.2,260.6 543.4,238 	"/>
	<polygon class="st1" points="543.4,260.6 537.9,260.6 537.9,234.7 543.4,228.8 	"/>
	<polygon class="st3" points="537.9,260.6 513.3,260.6 537.9,234.7 	"/>
	<polygon class="st3" points="513.3,221.9 543.4,228.8 513.3,260.6 	"/>
	<polygon class="st2" points="513.3,229 537.9,234.6 513.3,260.6 	"/>
	<polygon class="st1" points="513.3,260.6 476.6,260.6 513.3,221.9 	"/>
	<polygon class="st3" points="507.2,260.6 476.6,260.6 507.2,228.3 	"/>
	<polygon class="st3" points="513.3,221.9 476.6,260.6 476.6,217.6 	"/>
	<polygon class="st2" points="507.2,228.3 476.6,260.6 476.6,224.6 	"/>
	<g>
		<polygon class="st1" points="435.9,217.6 435.9,260.6 442.5,260.6 442.5,224.5 		"/>
		<polygon class="st1" points="476.6,217.6 470.1,224.5 470.1,260.6 476.6,260.6 		"/>
		<polygon class="st3" points="456.3,239.1 442.5,224.5 442.5,260.6 470.1,260.6 470.1,224.5 		"/>
	</g>
</g>
<g>
	<g>
		<polygon class="st3" points="353.8,163.1 353.8,138.3 377.3,138.3 377.3,109.6 369.3,100.2 343.5,100.2 336.5,109.6 336.5,180.4 
					"/>
		<polygon class="st3" points="384.5,169.8 384.5,143.8 359.2,143.8 359.2,195 		"/>
		<polygon class="st2" points="377.3,109.6 373.9,105.7 346.5,105.7 341.9,112 341.9,175 353.8,163.1 353.8,138.3 377.3,138.3 		"/>
	</g>
	<polygon class="st2" points="331,160.6 331,127 316.6,127 311.3,141.2 306.1,141.2 304,187.7 	"/>
	<polygon class="st3" points="309.5,182.2 309.5,145.6 314.5,145.6 319.7,131.4 331,131.4 331,125.9 315.5,125.9 310.3,140.2 
		304,140.2 304,187.7 	"/>
</g>
</svg>
